<?xml version="1.0" encoding="utf-8"?>
<!-- Svg Vector Icons : http://www.onlinewebfonts.com/icon -->
<!DOCTYPE svg PUBLIC "-//W3C//DTD SVG 1.1//EN" "http://www.w3.org/Graphics/SVG/1.1/DTD/svg11.dtd">
<svg version="1.1" xmlns="http://www.w3.org/2000/svg" xmlns:xlink="http://www.w3.org/1999/xlink" x="0px" y="0px" viewBox="0 0 1000 1000" enable-background="new 0 0 1000 1000" xml:space="preserve">
<metadata> Svg Vector Icons : http://www.onlinewebfonts.com/icon </metadata>
<g><g transform="translate(0.000000,511.000000) scale(0.100000,-0.100000)"><path d="M4502.4,870.8C2228.1-1403.5,365.2-3276.2,367.1-3286c0-11.7,182.2-176.3,401.6-368.3l401.6-348.7l336.9-3.9l336.9-3.9l166.5,80.3c478,229.2,1183.2,797.3,1990.2,1604.3C5076.4-1252.6,5881.5-202.6,6057.8,353.7c31.4,101.9,33.3,129.3,9.8,291.9c-13.7,99.9-29.4,190-35.3,201.8c-3.9,13.7,54.8,35.3,154.8,56.8c370.2,78.4,767.9,241,1106.8,448.6c415.3,258.6,1134.2,1016.7,1529.9,1616.1c178.3,270.3,203.7,288,431,272.3l164.6-9.8l74.4,74.4c201.8,201.8,184.1,517.1-52.9,875.6c-64.6,99.9-758.1,828.6-787.5,828.6C8647.4,5010,6778.7,3147.1,4502.4,870.8z M8604.3,3963.9c58.8-58.8,66.6-78.4,66.6-164.5c0-119.5-62.7-207.6-168.5-237c-250.8-68.6-419.2,250.7-221.4,417.2c47,39.2,80.3,50.9,158.7,50.9C8526,4030.6,8545.6,4022.7,8604.3,3963.9z M6594.5,2042.3c72.5-37.2,117.5-123.4,117.5-225.3c0-62.7-13.7-94-62.7-146.9c-125.4-135.2-317.3-103.8-391.8,62.7c-33.3,78.4-35.2,96-11.7,168.5C6290.9,2046.2,6457.4,2112.8,6594.5,2042.3z"/><path d="M6414.3,492.8C6402.5,291,6373.2,195,6239.9-73.4c-570-1138.1-2642.6-3318.4-3831.6-4025.5c-282.1-168.5-521.1-258.6-695.4-260.5c-72.5-2-127.3-7.8-117.5-15.7c121.5-109.7,387.9-338.9,421.2-360.4c378.1-244.8,1334,342.8,2636.7,1625.9C6049.9-1736.5,6953-443.6,6878.6,73.6c-17.6,127.3-82.3,221.4-280.1,419.2l-174.4,172.4L6414.3,492.8z"/></g></g>
</svg>